# xmcd
#
# Track frame offsets: 
#        150
#        14826
#        27135
#        38059
#        50419
#        62848
#        76385
#        89925
#        100551
#        116388
#        131804
#        146744
#        159979
#        169258
#        181997
#
# Disc length: 2554 seconds
#
# Revision: 0
# Processed by: cddbd v1.5.2PL0 Copyright (c) Steve Scherf et al.
# Submitted via: ExactAudioCopyFreeDBPlugin 1.0
#
DISCID=cb09f80f
DTITLE=Charles Trenet - Chanson Celebration Collection La Mer CD 07 L'
DTITLE=âme des poetes
DYEAR=1951
DGENRE=Chanson
TTITLE0=Mes jeunes années
TTITLE1=L'âme des poetes
TTITLE2=Dans les pharmacies
TTITLE3=Une noix
TTITLE4=La chanson de l'ours
TTITLE5=La folle complainte
TTITLE6=Le serpent phyton
TTITLE7=Raphael
TTITLE8=Sainte-Cathérine
TTITLE9=Les Boeufs
TTITLE10=Histoire d'un Moniseur
TTITLE11=La cité de Carcassonne
TTITLE12=La jolie Sardane
TTITLE13=Printemps à Rio
TTITLE14=En Seine-et-Oise
EXTD=
EXTT0=
EXTT1=
EXTT2=
EXTT3=
EXTT4=
EXTT5=
EXTT6=
EXTT7=
EXTT8=
EXTT9=
EXTT10=
EXTT11=
EXTT12=
EXTT13=
EXTT14=
PLAYORDER=
